<?xml version="1.0" standalone="no"?>
<!DOCTYPE svg PUBLIC "-//W3C//DTD SVG 20010904//EN"
 "http://www.w3.org/TR/2001/REC-SVG-20010904/DTD/svg10.dtd">
<svg version="1.0" xmlns="http://www.w3.org/2000/svg"
 width="762.000000pt" height="761.000000pt" viewBox="0 0 762.000000 761.000000"
 preserveAspectRatio="xMidYMid meet">

<g transform="translate(0.000000,761.000000) scale(0.100000,-0.100000)"
fill="#000000" stroke="none">
<path d="M3404 7565 c-456 -50 -885 -175 -1282 -374 -384 -192 -677 -405 -973
-707 -383 -391 -695 -903 -858 -1404 -68 -209 -121 -450 -163 -740 -20 -135
-23 -195 -23 -460 1 -369 20 -528 107 -875 122 -491 370 -990 694 -1400 111
-140 416 -444 559 -559 671 -535 1476 -818 2325 -818 416 0 756 56 1145 187
460 155 870 385 1220 686 573 491 980 1140 1170 1864 66 249 136 687 112 702
-13 8 -751 57 -877 58 -12 0 -19 -29 -32 -135 -106 -824 -534 -1517 -1219
-1973 -482 -320 -1092 -486 -1649 -448 -585 40 -1075 223 -1545 580 -138 104
-382 351 -487 491 -322 432 -488 833 -554 1337 -21 157 -24 501 -6 658 57 497
248 967 558 1377 98 129 348 379 479 479 429 326 882 510 1400 565 178 19 510
14 673 -10 607 -91 1125 -351 1557 -781 151 -150 233 -250 350 -425 177 -265
314 -571 376 -835 12 -55 25 -103 28 -107 9 -11 129 12 656 126 116 25 211 46
213 46 16 0 -52 265 -110 425 -278 769 -745 1386 -1373 1817 -539 370 -1104
581 -1745 653 -167 18 -555 18 -726 0z m362 -242 l49 -128 3 128 3 127 67 0
c37 0 72 -4 78 -8 18 -11 26 -638 9 -652 -9 -7 -37 -8 -86 -3 l-73 8 -41 120
-40 120 -3 -122 -3 -122 -52 -6 c-29 -4 -66 -5 -82 -3 l-30 3 -3 333 -2 332
79 0 78 0 49 -127z m-333 -221 c60 -173 106 -316 103 -319 -2 -3 -45 -11 -95
-17 -102 -14 -103 -14 -120 52 -10 35 -16 42 -36 42 -24 0 -25 -3 -25 -54 0
-31 -5 -58 -12 -62 -13 -8 -124 -33 -149 -34 -13 0 -18 14 -23 68 -13 146 -27
585 -18 594 13 13 190 47 232 45 l35 -2 108 -313z m1060 273 c65 -16 77 -22
77 -39 0 -40 -102 -531 -116 -558 -23 -44 -76 -54 -176 -34 -45 9 -86 20 -91
25 -6 6 -2 30 8 60 16 51 17 51 50 45 l33 -6 11 54 c5 29 27 139 47 243 42
213 49 239 67 232 6 -2 47 -12 90 -22z m-1605 -208 c81 -232 153 -460 149
-471 -5 -12 -131 -56 -159 -56 -9 0 -20 12 -26 28 -30 76 -192 568 -192 583 0
14 19 24 77 42 42 14 83 23 89 20 7 -2 35 -68 62 -146z m1914 127 c43 -14 78
-31 78 -38 0 -7 -27 -102 -60 -212 -34 -109 -72 -239 -86 -289 -14 -49 -31
-95 -37 -102 -9 -8 -32 -5 -95 15 l-84 26 5 33 c8 44 155 551 168 575 13 23
19 23 111 -8z m302 -108 c42 -19 76 -37 76 -40 0 -2 -33 -89 -74 -193 -40
-103 -81 -212 -91 -241 -17 -53 -12 -79 12 -64 7 5 55 113 107 241 52 128 96
235 100 238 6 6 119 -46 150 -70 19 -14 17 -20 -54 -193 -109 -270 -120 -292
-156 -324 -59 -51 -144 -52 -243 -2 -30 15 -68 44 -85 65 -27 34 -31 47 -30
95 0 48 15 95 93 290 58 145 98 232 106 232 8 0 48 -15 89 -34z m-2547 -231
c56 -126 106 -231 111 -233 6 -2 27 4 47 12 21 9 41 16 45 16 9 0 50 -97 50
-120 0 -13 -33 -31 -126 -69 -69 -28 -131 -51 -138 -51 -19 0 -256 555 -256
599 0 13 20 27 68 49 37 17 74 30 82 29 9 -1 55 -91 117 -232z m-383 43 c35
-55 126 -210 239 -408 47 -82 63 -118 56 -127 -12 -14 -135 -83 -149 -83 -17
0 -344 562 -338 581 4 12 127 87 145 88 7 1 28 -23 47 -51z m-252 -166 c20
-31 41 -77 48 -102 22 -87 105 -330 112 -330 4 0 30 14 56 30 27 17 54 30 59
30 12 0 63 -91 63 -112 0 -7 -13 -21 -29 -31 -16 -9 -71 -48 -124 -87 -52 -38
-100 -70 -107 -70 -14 0 -44 33 -64 71 -8 14 -44 110 -81 215 -36 104 -68 195
-70 203 -4 9 -18 3 -50 -24 -25 -20 -50 -35 -55 -33 -16 5 -79 100 -74 112 3
6 23 25 46 41 131 96 205 144 218 145 8 0 32 -26 52 -58z m3926 -57 c35 -25
65 -52 68 -60 5 -12 -351 -494 -375 -510 -5 -2 -54 27 -110 66 -111 76 -110
74 -68 137 22 33 35 36 79 18 13 -6 49 36 168 193 83 111 157 201 164 201 6 0
40 -20 74 -45z m248 -191 c35 -31 64 -60 64 -64 0 -9 -270 -325 -367 -430
l-60 -64 -66 58 c-37 32 -67 64 -67 70 0 15 410 486 422 486 6 0 39 -25 74
-56z m-4625 -85 c30 -22 108 -79 174 -127 66 -47 167 -119 223 -160 l104 -75
-58 -58 c-32 -33 -67 -62 -76 -65 -12 -3 -33 6 -58 26 -38 30 -40 30 -65 14
-14 -9 -25 -19 -25 -23 0 -4 16 -22 35 -41 19 -19 35 -38 35 -43 0 -4 -28 -39
-62 -77 -49 -56 -64 -67 -76 -58 -31 26 -399 498 -410 526 -5 15 174 202 193
202 6 0 36 -18 66 -41z m4901 -189 c73 -77 135 -145 137 -151 5 -16 -70 -89
-91 -89 -9 0 -27 14 -40 30 -12 17 -26 30 -30 30 -5 0 -90 -77 -189 -171
l-181 -172 -55 54 c-91 90 -100 69 103 264 l178 171 -33 42 -34 42 39 44 c21
24 44 45 51 45 6 1 71 -62 145 -139z m-5205 -206 c65 -32 120 -92 129 -139 5
-28 10 -35 23 -29 52 21 67 16 209 -83 l93 -65 -17 -26 c-28 -44 -96 -122
-106 -122 -5 0 -55 36 -112 80 -57 44 -108 80 -114 80 -5 0 -15 -6 -21 -14 -9
-11 10 -29 101 -97 62 -45 115 -84 117 -85 6 -5 -94 -156 -107 -161 -6 -3 -60
31 -120 74 -59 44 -179 133 -267 197 -88 65 -162 122 -163 127 -4 11 136 204
175 241 56 54 105 60 180 22z m5476 -130 c73 -48 144 -170 132 -231 -7 -36
-77 -123 -100 -123 -13 0 -105 121 -105 138 0 5 9 17 20 27 37 34 17 68 -24
41 -23 -15 -24 -21 -28 -155 -3 -136 -4 -140 -33 -182 -107 -152 -316 -101
-372 90 -29 103 -4 170 82 217 40 21 45 18 104 -65 l41 -60 -37 -27 c-50 -36
-63 -53 -56 -70 9 -23 57 -16 84 12 23 24 24 30 21 150 -3 142 7 177 64 221
75 56 137 62 207 17z m-5786 -385 c49 -24 82 -61 90 -101 5 -26 6 -27 34 -13
15 8 44 15 63 15 95 0 236 -94 236 -158 0 -28 -129 -335 -149 -355 -12 -12
-621 282 -621 300 0 18 107 231 132 263 53 68 137 87 215 49z m6104 -125 c22
-48 38 -88 37 -90 -2 -2 -114 -51 -248 -109 -135 -58 -245 -109 -244 -115 3
-26 5 -30 15 -30 6 0 108 43 227 96 119 52 229 98 243 101 22 4 28 0 42 -29
40 -84 57 -132 50 -139 -18 -17 -461 -199 -499 -205 -107 -17 -217 113 -216
256 1 62 26 106 79 139 35 22 448 208 466 210 5 1 26 -38 48 -85z m-6363 -539
c11 -14 23 -49 27 -82 13 -114 25 -154 43 -149 60 18 70 17 90 -4 28 -31 18
-48 -34 -56 -24 -3 -46 -10 -49 -14 -10 -17 77 -174 126 -225 65 -68 78 -70
71 -10 -9 85 41 35 61 -60 14 -67 0 -105 -37 -105 -24 0 -104 54 -138 94 -36
41 -100 138 -114 172 -14 33 -34 38 -34 9 0 -10 -16 -15 -57 -17 l-58 -3 -3
-37 c-4 -45 9 -48 69 -18 60 31 106 7 62 -32 -42 -36 -220 -108 -269 -108 -13
0 -30 10 -38 21 -13 19 -12 26 7 65 20 42 20 45 3 80 -9 20 -14 39 -11 42 11
11 59 -23 80 -55 11 -18 23 -32 28 -33 4 0 7 38 7 85 0 47 -1 85 -3 85 -1 0
-27 -9 -57 -20 l-55 -19 -17 20 c-24 29 -23 38 8 49 34 13 102 61 136 95 l28
27 -33 22 c-43 29 -42 49 3 51 108 3 110 4 110 29 0 13 -9 35 -20 49 -23 29
-25 48 -8 65 20 20 55 14 76 -13z m232 -60 c32 -16 45 -44 35 -76 -6 -17 -14
-20 -48 -17 -37 3 -44 8 -62 40 -16 30 -17 39 -6 52 17 20 44 20 81 1z m-247
-884 c33 -13 47 -58 47 -148 l0 -74 103 2 c117 4 167 -13 193 -62 14 -27 13
-29 -11 -35 -14 -3 -66 1 -114 10 -49 9 -109 16 -134 16 l-45 0 -4 -60 c-3
-64 1 -70 48 -70 32 0 74 -42 74 -75 l0 -25 -127 1 c-71 0 -141 -2 -156 -6
-34 -9 -77 25 -77 62 0 20 5 23 35 23 53 0 105 50 105 100 0 22 -4 41 -8 44
-5 3 -46 -4 -91 -14 -123 -30 -154 -27 -185 13 -15 19 -26 37 -26 40 0 4 24 7
53 7 29 0 78 4 108 9 30 5 75 12 102 16 l47 6 0 65 c0 39 -6 77 -15 94 -14 28
-14 31 5 50 22 22 37 24 73 11z m374 -852 c20 -17 16 -48 -12 -81 -14 -17 -25
-32 -23 -33 2 -2 28 1 58 6 30 5 63 6 72 3 20 -6 34 -42 21 -54 -4 -4 -48 -10
-97 -12 -84 -4 -90 -6 -113 -34 -32 -40 -29 -47 10 -24 38 24 70 26 87 6 12
-15 43 -304 34 -318 -8 -13 -36 -9 -53 6 -9 8 -53 19 -99 24 -46 6 -86 13 -90
17 -4 4 -8 57 -9 118 -2 109 -1 113 25 141 l27 29 -30 -6 c-16 -4 -39 -9 -51
-13 -23 -6 -57 20 -51 40 2 6 30 20 62 32 35 12 73 36 96 59 44 43 48 55 19
55 -11 0 -20 -4 -20 -9 0 -12 -47 -61 -60 -61 -20 0 -50 40 -50 68 0 51 36 66
79 33 24 -18 25 -18 60 6 37 25 78 26 108 2z m-361 -70 c26 -51 -16 -94 -62
-64 -35 23 -42 64 -16 86 29 23 59 14 78 -22z m-31 -203 c37 -20 40 -25 38
-60 -4 -53 12 -79 43 -72 34 9 62 -34 45 -70 -17 -39 -14 -44 33 -44 24 0 88
-12 142 -26 88 -23 111 -25 205 -20 91 6 108 5 120 -10 12 -14 10 -19 -10 -35
-35 -28 -127 -53 -201 -53 -50 -1 -81 6 -135 28 -84 35 -177 44 -269 26 -53
-10 -69 -10 -81 0 -24 20 -17 47 18 69 18 11 43 31 55 44 l23 25 -29 33 c-53
61 -77 125 -62 165 11 29 14 29 65 0z m878 -560 c47 -62 90 -123 96 -134 15
-28 14 -86 -3 -125 -28 -68 -142 -142 -190 -124 -10 4 -15 -6 -19 -34 -3 -22
-17 -56 -32 -75 -32 -42 -132 -109 -187 -126 -38 -11 -39 -11 -85 33 -70 68
-234 261 -230 272 6 18 532 426 549 427 10 0 50 -45 101 -114z m5058 -130
c127 -92 233 -174 236 -182 7 -19 -90 -149 -110 -148 -19 2 -517 372 -517 385
0 5 23 41 51 79 l51 70 29 -17 c17 -10 134 -94 260 -187z m-178 -232 c130
-118 237 -220 237 -227 0 -18 -99 -127 -115 -127 -8 0 -62 25 -120 56 -58 31
-108 54 -111 51 -3 -2 36 -42 86 -88 49 -45 90 -88 90 -94 0 -6 -26 -37 -59
-69 l-59 -58 -163 158 c-90 87 -199 191 -241 232 -88 84 -88 79 -10 156 l50
48 107 -52 c58 -29 108 -50 111 -47 2 2 -32 39 -76 82 -44 43 -80 83 -80 89 0
14 91 106 105 106 6 0 117 -97 248 -216z m-4540 -44 c91 -87 107 -113 107
-173 0 -80 -109 -197 -183 -197 -23 0 -27 -4 -27 -28 0 -38 -42 -100 -132
-197 l-75 -80 -66 64 c-37 35 -67 68 -67 73 0 6 45 58 100 116 55 59 99 111
97 117 -10 28 -40 7 -120 -80 -49 -52 -98 -100 -109 -106 -17 -9 -28 -2 -84
56 -35 37 -64 72 -64 77 0 5 108 118 240 251 l239 241 33 -29 c18 -16 68 -63
111 -105z m4009 -122 c299 -356 378 -454 378 -467 0 -14 -116 -121 -138 -129
-14 -4 -435 504 -430 519 5 13 131 118 143 119 6 0 27 -19 47 -42z m-3721
-134 c43 -34 67 -60 62 -67 -4 -7 -78 -108 -166 -225 -102 -137 -157 -218
-153 -228 3 -9 10 -14 15 -12 5 2 84 101 176 221 92 119 173 217 180 217 15 0
145 -88 145 -97 0 -26 -303 -447 -342 -474 -49 -36 -125 -38 -192 -5 -66 33
-140 110 -157 164 -20 69 1 118 114 266 55 72 127 168 160 214 34 45 67 82 75
82 7 0 44 -25 83 -56z m3522 -21 c13 -21 92 -147 175 -279 84 -133 152 -248
152 -255 -1 -13 -129 -109 -147 -109 -4 0 -41 52 -82 115 -40 63 -77 115 -82
115 -28 0 -15 -41 45 -141 36 -61 66 -114 66 -117 0 -7 -36 -32 -112 -76 l-47
-27 -50 74 c-27 41 -98 154 -157 253 -58 98 -115 191 -125 206 -11 14 -19 31
-19 37 0 14 151 112 162 105 4 -2 28 -39 54 -82 60 -97 72 -112 90 -105 22 8
18 20 -41 115 -30 48 -55 94 -55 102 0 13 125 106 142 106 4 0 18 -17 31 -37z
m-3171 -213 c84 -46 83 -41 64 -181 -9 -67 -15 -123 -13 -125 2 -2 27 45 55
105 28 60 54 111 59 114 9 6 128 -44 142 -59 7 -7 -234 -548 -275 -617 -10
-18 -14 -18 -80 10 l-69 29 0 59 c0 33 3 105 7 160 7 96 7 98 -7 60 -68 -181
-88 -225 -101 -225 -24 0 -134 60 -141 76 -3 8 23 74 57 147 35 73 96 204 137
291 71 155 88 186 102 186 4 0 33 -14 63 -30z m2745 -76 c34 -21 71 -75 99
-144 14 -34 24 -63 22 -65 -8 -7 -126 -63 -146 -69 -20 -7 -26 -1 -54 61 -17
37 -38 76 -45 85 -18 20 -43 13 -43 -13 0 -25 146 -380 160 -389 17 -11 50 0
50 16 0 7 -12 40 -26 74 -15 33 -25 62 -23 64 2 2 42 23 88 46 65 32 86 39 92
28 12 -20 49 -161 49 -189 0 -44 -54 -115 -112 -148 -140 -80 -261 -55 -322
68 -13 25 -49 113 -80 194 -62 161 -71 220 -42 276 50 95 248 158 333 105z
m-2134 -159 c80 -37 117 -89 117 -160 0 -62 -90 -389 -123 -448 -12 -21 -35
-47 -52 -57 -100 -62 -281 -11 -343 95 -33 57 -25 125 38 320 62 190 81 229
135 261 34 22 49 25 105 21 43 -3 84 -13 123 -32z m1749 -145 c82 -301 121
-458 115 -472 -6 -17 -115 -52 -142 -47 -10 2 -49 49 -87 103 -37 55 -68 93
-68 85 0 -8 12 -61 27 -117 22 -85 24 -105 13 -112 -25 -16 -141 -33 -151 -23
-13 13 -171 641 -164 652 7 12 142 44 153 37 6 -3 41 -53 78 -111 38 -58 70
-101 72 -95 2 5 -11 60 -29 120 -17 61 -30 113 -27 115 10 10 124 43 142 42
16 -2 27 -30 68 -177z m-1282 50 c46 -5 90 -10 97 -10 13 0 19 -36 29 -174 7
-105 16 -98 39 29 8 50 18 100 21 113 4 21 8 22 129 22 l125 0 0 -77 c0 -90
-29 -582 -35 -601 -4 -9 -28 -12 -92 -10 l-88 3 0 45 c0 25 3 92 7 150 8 125
-1 109 -32 -55 -12 -66 -28 -126 -35 -133 -9 -10 -27 -11 -71 -5 l-59 8 -7 50
c-3 28 -7 88 -8 135 -3 129 -15 153 -23 45 -4 -49 -10 -121 -14 -159 l-6 -69
-79 6 c-43 4 -83 9 -89 12 -5 4 -9 28 -9 54 0 58 59 621 66 632 3 5 15 7 27 4
12 -3 60 -9 107 -15z m775 9 c13 -20 34 -124 27 -131 -4 -4 -34 -10 -67 -15
-59 -8 -60 -9 -57 -38 6 -73 8 -75 67 -75 29 0 56 -4 59 -9 3 -4 8 -33 12 -63
l6 -55 -56 -7 c-30 -4 -57 -10 -59 -14 -2 -4 1 -35 6 -69 10 -70 10 -70 95
-54 41 8 44 7 53 -17 6 -14 9 -49 7 -76 l-3 -51 -75 -12 c-41 -6 -114 -14
-161 -18 l-86 -7 -12 88 c-6 49 -23 201 -37 338 -30 274 -31 265 36 267 19 0
76 6 125 13 50 7 95 14 102 15 6 0 15 -4 18 -10z"/>
<path d="M3230 7143 c0 -74 13 -153 26 -153 24 0 24 18 3 97 -24 89 -29 98
-29 56z"/>
<path d="M1497 6249 c57 -82 98 -123 116 -116 29 11 18 30 -45 82 -99 81 -105
84 -71 34z"/>
<path d="M1042 5948 c-19 -19 -15 -23 43 -64 41 -28 58 -35 67 -26 14 14 4 27
-55 70 -33 23 -47 28 -55 20z"/>
<path d="M716 5424 c-9 -23 -5 -26 64 -59 51 -24 63 -27 70 -15 12 20 6 27
-60 60 -69 35 -66 34 -74 14z"/>
<path d="M960 5300 c-12 -23 2 -34 91 -74 59 -26 69 -25 69 6 0 12 -22 29 -70
53 -38 19 -72 35 -74 35 -3 0 -10 -9 -16 -20z"/>
<path d="M522 4689 c-40 -26 -38 -30 11 -22 27 4 37 11 37 24 0 24 -7 24 -48
-2z"/>
<path d="M523 4600 c-16 -6 -23 -18 -23 -36 0 -23 3 -25 23 -20 12 4 34 9 50
12 28 7 31 12 21 38 -7 18 -36 20 -71 6z"/>
<path d="M860 2857 c-34 -22 -35 -22 -10 -25 41 -6 48 -21 20 -43 -14 -11 -20
-22 -15 -25 33 -15 40 -23 27 -36 -21 -21 -15 -50 10 -46 20 3 21 8 19 81 -1
44 -5 87 -9 98 -7 17 -9 17 -42 -4z"/>
<path d="M800 2684 c0 -17 22 -14 28 4 2 7 -3 12 -12 12 -9 0 -16 -7 -16 -16z"/>
<path d="M1306 2127 c-43 -37 -47 -44 -33 -55 13 -12 23 -8 61 20 46 34 60 53
50 69 -10 17 -30 9 -78 -34z"/>
<path d="M1094 1964 c-67 -52 -70 -56 -49 -74 12 -10 24 -5 69 31 62 49 70 63
52 78 -10 8 -28 -1 -72 -35z"/>
<path d="M1648 1742 c-37 -35 -41 -42 -29 -56 13 -15 18 -14 53 21 21 20 38
43 38 49 0 28 -22 23 -62 -14z"/>
<path d="M2917 1043 c-2 -5 -30 -97 -62 -206 -49 -166 -56 -200 -44 -208 20
-13 27 -11 38 9 13 25 111 371 111 393 0 19 -34 28 -43 12z"/>
<path d="M6265 6770 c200 -176 454 -456 604 -668 444 -627 700 -1417 701
-2160 0 -747 -206 -1484 -580 -2068 -490 -768 -1173 -1307 -2014 -1589 -431
-145 -804 -202 -1256 -192 -434 10 -773 68 -1175 202 -778 259 -1489 807
-1951 1503 -35 53 -64 91 -64 84 0 -15 121 -202 131 -202 4 0 10 -11 13 -25 4
-14 11 -25 16 -25 6 0 10 -6 10 -13 0 -7 16 -30 35 -51 19 -21 35 -40 35 -43
0 -6 77 -102 138 -173 144 -164 275 -297 384 -386 26 -22 73 -61 106 -89 305
-258 738 -498 1153 -640 774 -265 1673 -272 2453 -18 586 190 1075 491 1512
927 647 648 1027 1485 1095 2411 14 193 6 576 -16 757 -107 886 -502 1684
-1133 2289 -72 69 -159 146 -194 173 l-63 48 60 -52z"/>
<path d="M3461 6524 c-125 -17 -299 -52 -319 -63 -11 -6 1 -16 42 -34 155 -71
271 -264 253 -419 -5 -36 -3 -48 7 -48 27 0 134 -80 160 -120 14 -22 31 -60
38 -85 19 -70 1 -94 -82 -115 -91 -23 -125 -43 -202 -121 -46 -46 -77 -90
-102 -142 -45 -92 -45 -102 -5 -81 17 8 49 22 71 30 24 8 57 32 80 58 43 49
108 85 208 112 102 29 358 26 466 -4 103 -30 177 -72 214 -124 23 -31 47 -48
105 -73 44 -19 75 -28 75 -21 0 22 -58 132 -99 186 -66 87 -168 158 -250 174
-75 14 -90 64 -45 153 30 61 89 117 150 145 l44 19 0 63 c0 77 29 165 75 228
45 61 136 133 199 157 27 10 45 20 40 23 -21 13 -259 69 -374 89 -166 28 -589
36 -749 13z"/>
<path d="M2905 6390 c-11 -5 -69 -30 -128 -55 -209 -89 -427 -218 -597 -353
-133 -106 -362 -338 -448 -454 -305 -408 -488 -873 -533 -1352 -15 -160 -6
-523 15 -662 45 -283 152 -595 287 -834 26 -47 54 -94 62 -105 14 -18 16 -17
27 25 6 25 50 123 98 218 72 144 93 178 125 200 28 20 51 52 86 122 27 52 62
107 79 122 31 27 156 262 197 371 45 118 87 212 105 232 10 11 28 51 40 88 21
65 21 69 5 87 -27 30 -143 69 -233 79 -97 10 -109 19 -147 103 -21 47 -25 65
-17 82 5 11 50 70 100 129 50 60 144 183 208 274 65 90 129 173 142 184 31 24
58 24 129 -1 32 -11 60 -20 64 -20 3 0 9 62 12 138 7 172 24 232 150 527 112
261 161 406 182 535 14 91 25 331 15 329 -3 0 -14 -4 -25 -9z"/>
<path d="M3022 6376 c-16 -21 -20 -48 -25 -168 -9 -205 -60 -390 -200 -713
-82 -190 -112 -273 -131 -368 -20 -94 -20 -242 -2 -322 8 -33 13 -61 12 -63
-2 -1 -19 6 -37 17 -47 27 -183 81 -206 81 -13 0 -48 -43 -110 -132 -98 -141
-171 -240 -267 -358 l-59 -73 14 -41 c14 -40 16 -41 69 -48 138 -18 260 -63
317 -117 21 -20 21 -23 7 -71 -8 -27 -28 -80 -45 -117 -39 -85 -110 -254 -133
-313 -30 -76 -168 -334 -187 -348 -10 -7 -42 -58 -70 -112 -32 -64 -67 -115
-96 -142 -56 -54 -213 -358 -213 -413 0 -95 196 -200 480 -259 291 -59 581
-96 950 -121 235 -15 235 -15 285 -47 177 -111 246 -132 435 -133 125 0 155 3
220 24 87 27 136 50 205 97 l50 34 175 10 c451 27 755 62 1015 117 300 62 448
143 462 251 4 33 -7 61 -83 211 -62 124 -96 179 -120 197 -23 18 -44 53 -74
122 -27 62 -54 108 -75 127 -22 21 -54 78 -103 185 -38 85 -73 166 -77 180 -4
14 -15 39 -25 55 -10 17 -26 59 -35 95 -9 36 -25 74 -35 85 -19 20 -80 194
-80 227 0 40 173 115 286 125 67 5 77 9 99 35 14 16 25 37 25 46 0 9 -39 67
-86 127 -80 104 -202 285 -257 385 -14 24 -31 49 -40 54 -22 14 -105 -12 -103
-32 1 -11 -8 -18 -24 -20 -21 -4 -22 -2 -10 13 11 13 5 13 -40 -5 -29 -11 -62
-26 -72 -31 -11 -6 -21 -9 -23 -7 -3 2 5 33 16 68 16 49 21 92 22 175 0 143
-22 232 -117 473 -85 216 -159 438 -181 541 -9 45 -15 126 -15 215 0 138 -1
143 -24 165 -23 22 -28 22 -77 12 -69 -15 -125 -48 -178 -106 -81 -88 -109
-181 -91 -304 5 -34 4 -35 -50 -54 -78 -28 -119 -61 -147 -125 -27 -57 -23
-71 19 -72 33 0 123 -47 170 -89 107 -95 206 -265 229 -391 7 -39 9 -73 6 -76
-3 -4 -28 7 -54 24 -60 38 -157 86 -203 101 -22 7 -51 29 -74 56 -20 25 -59
56 -86 70 -58 30 -70 32 -40 7 21 -17 21 -19 6 -34 -52 -52 -403 -51 -540 1
-71 28 45 70 215 78 103 5 149 1 269 -22 14 -3 5 2 -20 11 -28 10 -95 18 -175
21 -112 5 -143 2 -214 -16 -110 -27 -170 -58 -199 -101 -18 -27 -40 -41 -92
-61 -38 -15 -107 -48 -153 -73 -47 -25 -88 -46 -91 -46 -21 0 34 183 79 265
36 64 120 167 171 209 41 33 129 74 177 82 43 8 45 18 17 73 -35 69 -127 131
-195 131 -15 0 -16 5 -9 38 5 20 9 69 9 107 0 152 -111 289 -267 331 -29 7
-54 14 -55 14 -1 0 -10 -11 -21 -24z m88 -6 c81 -22 179 -109 185 -163 2 -12
9 -38 18 -58 29 -70 33 -159 7 -159 -5 0 -16 12 -23 26 l-14 27 -7 -41 c-7
-48 -22 -61 -41 -36 -15 22 -17 20 -31 -21 -5 -16 -16 -30 -24 -30 -10 0 -25
-32 -46 -95 -17 -52 -35 -104 -39 -115 -7 -19 -6 -19 8 1 9 12 33 29 53 39 25
12 33 20 24 25 -18 11 33 36 111 54 71 17 94 38 51 46 -27 6 -27 6 -6 18 43
24 163 -40 179 -95 5 -17 2 -23 -9 -23 -9 0 -13 -6 -10 -14 5 -12 -14 -14
-108 -13 -104 2 -117 0 -172 -26 -33 -15 -79 -43 -102 -62 -23 -19 -47 -35
-52 -35 -5 0 -26 -28 -47 -62 -47 -77 -52 -89 -27 -60 11 12 27 22 36 22 14 0
16 -16 17 -107 l0 -108 29 63 c38 81 109 190 161 247 73 79 70 52 -7 -75 -65
-108 -134 -322 -134 -417 l0 -36 23 20 c36 32 152 93 229 119 82 28 88 28 88
11 0 -6 -44 -33 -97 -58 -54 -26 -126 -67 -160 -92 -33 -25 -64 -43 -67 -40
-10 10 -7 -49 5 -91 7 -27 13 -35 19 -26 6 9 15 1 33 -27 28 -44 92 -101 145
-127 19 -10 35 -16 36 -14 3 4 27 117 31 144 13 90 149 227 261 264 l37 13
-43 21 c-47 23 -63 46 -33 47 10 0 -10 9 -44 19 -34 10 -67 21 -72 25 -19 11
-12 43 15 64 27 21 59 18 50 -6 -10 -24 38 -60 109 -82 188 -58 441 -24 486
65 14 30 17 31 41 18 31 -16 45 -51 29 -68 -7 -6 -38 -19 -69 -28 -41 -13 -47
-16 -19 -13 20 3 37 3 37 0 0 -10 -104 -55 -127 -55 -33 0 -28 -13 10 -31 94
-45 142 -77 178 -117 54 -62 99 -157 106 -226 3 -31 10 -59 15 -62 15 -9 98
46 148 98 32 33 49 45 52 36 6 -14 38 84 38 114 0 10 -5 18 -11 18 -6 0 -36
20 -67 43 -31 24 -70 52 -87 61 -29 17 -29 17 -5 0 32 -23 110 -102 110 -112
0 -4 -4 -13 -9 -21 -7 -11 -20 -5 -60 31 -50 45 -108 86 -170 120 -58 32 -26
49 44 24 11 -4 3 3 -18 15 -41 25 -44 46 -6 41 33 -3 156 -63 220 -106 29 -20
57 -32 61 -28 14 14 -11 161 -43 257 -17 50 -46 119 -65 155 -36 66 -61 101
-49 68 11 -28 -3 -21 -59 29 -28 25 -66 55 -83 66 -41 23 -43 42 -5 32 41 -10
89 -43 113 -76 24 -34 37 -33 19 1 -23 43 13 15 67 -51 53 -65 131 -204 153
-271 23 -74 31 -53 24 66 -7 114 -7 116 15 116 11 0 21 2 21 5 0 16 -52 105
-61 105 -6 0 -31 18 -56 40 -79 69 -143 93 -260 98 -76 3 -103 8 -103 17 0 7
-6 15 -12 18 -19 7 14 58 52 81 41 24 110 40 123 27 7 -7 1 -12 -17 -17 -14
-3 -26 -10 -26 -15 0 -12 47 -34 102 -48 61 -14 127 -52 106 -60 -12 -5 -5
-13 25 -34 22 -16 37 -22 34 -15 -19 50 -57 182 -57 198 0 13 -5 18 -15 14
-10 -4 -19 4 -28 25 -12 29 -15 30 -27 16 -13 -16 -15 -15 -27 1 -7 10 -13 32
-14 48 l0 31 -16 -22 c-36 -52 -61 -10 -43 70 24 111 91 203 179 248 48 25
121 31 128 12 3 -9 -7 -13 -30 -13 -35 0 -146 -50 -167 -76 -11 -12 -10 -13 5
-8 15 6 16 3 10 -17 -7 -23 -7 -23 11 -8 38 32 43 32 33 -3 -5 -18 -9 -44 -9
-58 1 -23 2 -22 16 9 8 19 16 32 19 29 3 -2 1 -36 -4 -74 -8 -71 0 -179 18
-224 7 -18 8 -7 4 43 -9 100 10 82 31 -29 19 -101 53 -212 80 -260 10 -17 15
-21 12 -9 -6 20 -26 125 -26 131 0 14 22 -1 40 -28 19 -30 21 -31 16 -8 -14
67 -18 114 -9 105 6 -5 31 -71 58 -145 26 -74 74 -202 107 -285 96 -241 122
-380 99 -522 -20 -115 -103 -267 -189 -345 -49 -44 -202 -120 -287 -143 -80
-21 -235 -32 -235 -16 0 6 -11 11 -24 11 -13 0 -26 6 -29 13 -3 8 -18 -1 -42
-24 l-37 -37 50 -16 c98 -33 213 -124 245 -193 10 -22 8 -28 -15 -48 -60 -51
-273 -104 -468 -115 l-135 -8 170 3 c94 2 220 11 280 20 95 15 292 65 347 89
23 10 36 -20 17 -39 -16 -15 -99 -43 -179 -61 -30 -6 -46 -12 -35 -13 11 0 47
6 80 14 73 17 78 18 70 5 -14 -23 -164 -66 -318 -90 -357 -56 -980 -7 -1170
92 -54 28 -30 34 51 14 94 -25 96 -18 2 10 -90 26 -133 50 -138 78 -4 21 16
20 69 -3 106 -47 424 -112 535 -110 46 1 44 2 -31 15 -116 21 -191 42 -272 75
-89 38 -99 48 -79 86 39 71 126 140 226 178 l71 27 -38 33 c-38 32 -69 36 -58
7 5 -13 -6 -14 -82 -9 -151 11 -321 68 -438 146 l-30 20 50 -102 c91 -184 97
-276 34 -460 -51 -148 -155 -399 -172 -412 -7 -5 -27 -55 -45 -111 -19 -55
-38 -107 -42 -114 -17 -27 -21 -2 -11 56 6 32 12 87 12 123 1 36 5 80 9 96 7
29 7 29 15 -15 8 -40 10 -42 16 -20 18 63 0 189 -43 304 -16 44 -23 54 -28 41
-5 -14 -15 -3 -44 50 -47 86 -115 167 -184 217 -57 42 -63 55 -16 38 16 -6 25
-7 19 -2 -14 14 -124 60 -217 91 -42 14 -77 30 -77 35 1 5 -5 12 -12 17 -19
12 4 54 102 186 127 171 168 228 175 246 7 20 45 22 62 5 21 -21 14 -38 -16
-38 -38 0 -90 -65 -150 -185 -8 -16 -20 -36 -26 -44 -5 -7 -11 -20 -13 -29 -1
-9 -8 -21 -16 -27 -8 -6 -17 -22 -19 -35 -2 -20 -10 -26 -37 -30 -33 -5 -31
-6 40 -29 40 -13 103 -36 138 -52 75 -34 71 -33 71 -13 0 12 6 15 23 10 20 -5
23 -2 23 17 -1 12 5 22 12 22 17 0 56 -62 43 -69 -14 -9 -54 -10 -75 -1 -14 6
-17 5 -12 -3 4 -7 12 -12 18 -12 6 0 33 -14 60 -30 47 -29 50 -30 55 -11 3 11
19 25 36 32 17 7 39 21 49 31 10 10 26 18 37 18 10 0 21 9 24 20 3 11 16 24
30 29 27 11 30 43 9 91 l-11 25 0 -26 c-2 -53 -42 -65 -66 -19 -22 43 -19 60
10 60 14 0 25 5 25 11 0 6 9 9 20 6 27 -7 31 3 18 49 -7 25 -13 33 -16 22 -3
-14 -14 -18 -48 -18 -24 0 -44 2 -44 4 0 16 14 36 26 36 8 0 14 7 14 16 0 11
6 15 19 11 14 -3 18 -1 14 9 -6 17 9 18 26 2 8 -7 2 7 -12 32 -67 118 -92 239
-76 379 12 105 44 204 138 424 43 100 95 230 117 289 21 59 42 108 47 108 11
0 9 -21 -9 -79 -16 -56 -13 -77 6 -42 19 36 33 25 27 -22 -3 -24 -9 -52 -12
-62 -3 -11 7 5 24 35 27 49 59 165 76 273 3 20 11 37 17 37 7 0 9 -23 5 -72
l-5 -73 19 75 c15 57 19 98 16 168 -2 50 -3 92 -1 92 2 0 10 -12 19 -27 16
-28 16 -27 10 27 l-5 55 36 -40 36 -40 -20 38 c-24 42 -19 47 17 15 l26 -23
-23 27 c-34 38 -133 88 -176 88 -23 0 -36 5 -36 13 0 29 21 33 80 17z m-43
-101 c32 -109 23 -370 -10 -317 -11 16 -14 15 -39 -9 -34 -32 -34 -27 -13 84
9 43 19 127 22 186 7 116 18 133 40 56z m1615 -80 c-2 -46 4 -131 12 -188 9
-57 14 -106 13 -108 -2 -2 -12 6 -22 17 -22 24 -35 26 -35 5 0 -20 -16 -19
-24 1 -11 29 -6 178 9 262 16 91 21 105 38 99 8 -3 11 -30 9 -88z m-1232 -477
c0 -4 -14 -16 -31 -26 -17 -10 -53 -38 -80 -62 -48 -43 -69 -53 -69 -35 0 11
40 63 64 81 52 41 116 64 116 42z m550 -412 c0 -36 -256 -38 -292 -2 -9 9 25
12 140 12 90 0 152 -4 152 -10z m-568 -115 c1 -5 -30 -27 -68 -49 -38 -21 -98
-61 -133 -88 -80 -63 -104 -53 -40 17 75 81 237 162 241 120z m115 -31 c2 -5
-30 -33 -70 -62 -82 -56 -122 -98 -162 -167 -29 -49 -39 -53 -73 -29 -50 35
-17 118 73 186 88 66 220 108 232 72z m725 -31 c73 -34 119 -71 159 -127 33
-44 37 -81 12 -108 -26 -29 -40 -22 -82 41 -38 56 -82 97 -183 171 -26 19 -50
41 -53 49 -9 23 75 8 147 -26z m-1712 -345 c0 -17 -45 -3 -48 15 -3 15 0 16
22 6 14 -7 26 -16 26 -21z m2710 -45 c16 -27 41 -64 55 -82 14 -19 23 -41 21
-48 -3 -7 1 -13 9 -13 8 0 15 -4 15 -9 0 -5 38 -65 85 -133 62 -89 81 -124 70
-126 -22 -5 -8 -22 18 -22 23 -1 81 -66 71 -81 -3 -5 -26 -10 -52 -11 l-47 -1
43 -4 c38 -4 53 -15 35 -26 -5 -3 -51 -12 -103 -21 -60 -11 -122 -29 -167 -50
-71 -34 -154 -101 -175 -140 -9 -18 -7 -18 16 3 16 15 30 21 35 15 4 -5 19
-43 31 -84 15 -47 34 -85 52 -103 27 -27 64 -126 55 -150 -2 -6 6 -23 18 -37
30 -33 51 -120 33 -131 -10 -7 -9 -9 5 -9 12 0 30 -27 59 -87 22 -49 50 -105
60 -126 11 -20 18 -43 15 -50 -2 -6 10 -19 26 -27 24 -12 39 -34 70 -107 22
-51 38 -95 35 -98 -3 -3 -29 4 -58 15 -29 11 -58 19 -64 16 -6 -2 -4 -5 5 -5
8 -1 56 -21 106 -45 l90 -44 68 -127 c37 -69 64 -129 61 -132 -8 -8 -157 60
-157 72 0 6 9 12 21 15 21 5 21 5 -4 29 -19 18 -23 28 -15 37 7 9 6 19 -3 35
-10 17 -10 23 0 26 24 9 11 23 -45 52 -59 29 -163 64 -170 57 -3 -2 8 -10 24
-18 37 -18 35 -39 -6 -60 l-34 -17 27 -7 c29 -7 36 -34 9 -35 -10 0 5 -11 32
-23 94 -44 119 -81 35 -51 -96 34 -57 11 65 -38 152 -61 213 -95 249 -138 32
-38 33 -66 3 -110 -44 -66 -158 -121 -352 -169 -161 -40 -180 -43 -166 -26 10
12 1 12 -61 0 -313 -61 -782 -108 -790 -79 -2 5 31 14 73 21 132 20 152 35 74
55 -25 6 -45 15 -45 19 0 5 26 11 58 15 82 8 132 24 132 40 0 18 -30 34 -81
43 -49 8 -52 25 -7 32 25 4 33 10 33 25 0 16 -11 23 -62 34 -35 8 -63 18 -63
22 0 4 24 10 53 14 144 18 375 59 515 90 86 19 158 32 161 29 9 -8 -19 -22
-109 -51 -71 -23 -80 -28 -54 -31 44 -4 69 -33 54 -61 -10 -20 -8 -21 34 -21
64 0 96 -14 96 -44 0 -13 -7 -29 -15 -36 -9 -7 -14 -14 -12 -16 2 -2 57 7 123
20 65 14 147 28 182 32 54 6 62 4 62 -10 0 -10 -17 -25 -42 -36 -24 -11 -32
-17 -18 -14 51 11 169 75 194 105 14 17 26 41 26 53 0 53 -112 120 -335 201
-71 25 -140 53 -153 61 -14 9 -47 66 -81 137 l-58 122 -69 32 c-88 40 -153 97
-190 166 -17 34 -33 53 -41 50 -15 -6 -52 71 -79 163 -9 33 -24 69 -32 82 -31
47 -169 434 -190 530 -14 67 -14 80 1 150 23 107 83 222 166 316 96 109 135
131 81 45 -34 -56 -42 -95 -19 -91 9 1 22 -5 29 -13 7 -8 19 -15 27 -15 20 0
26 -25 13 -49 -15 -29 -48 -27 -62 4 -10 23 -12 24 -24 7 -18 -26 -6 -72 22
-82 14 -6 24 -18 24 -29 0 -13 9 -21 30 -26 17 -4 35 -15 40 -25 6 -10 20 -20
32 -22 17 -2 24 -11 26 -30 2 -16 5 -28 7 -28 1 0 40 20 86 44 46 24 132 61
192 82 98 35 130 54 92 54 -10 0 -15 11 -15 35 0 19 -4 35 -9 35 -5 0 -21 19
-35 43 -21 35 -25 38 -26 19 0 -12 -7 -25 -15 -29 -22 -8 -30 4 -15 22 11 13
8 15 -19 15 -17 0 -31 3 -31 8 0 17 41 72 50 67 15 -9 12 0 -12 42 -12 21 -33
46 -46 57 -13 10 -21 25 -18 32 4 10 -4 14 -30 14 -41 0 -42 17 -3 37 35 18
37 17 69 -34z m-2622 -18 c13 -27 5 -40 -16 -23 -11 10 -16 9 -23 -5 -14 -24
-39 -21 -39 3 0 11 -7 23 -15 26 -41 16 13 47 56 32 14 -5 31 -20 37 -33z
m-170 7 c9 -6 10 -16 1 -40 -13 -38 -16 -39 -46 -10 -20 19 -23 19 -23 4 0
-20 -24 -16 -28 5 -3 15 43 48 68 49 8 0 21 -4 28 -8z m59 -39 c14 -29 3 -53
-23 -53 -14 0 -19 36 -8 64 9 23 17 20 31 -11z m2589 16 c4 -7 0 -15 -8 -20
-9 -5 -19 -20 -22 -34 -8 -30 -20 -32 -39 -4 -9 13 -17 16 -22 10 -9 -16 -25
-13 -25 3 0 37 97 75 116 45z m130 -30 c21 -18 18 -42 -5 -36 -12 3 -22 -1
-25 -9 -6 -15 -46 -20 -46 -5 0 5 -3 23 -7 41 l-6 33 37 -6 c21 -3 44 -11 52
-18z m-2603 -11 c2 -7 0 -24 -4 -37 -9 -21 -11 -22 -31 -9 -31 21 -32 33 -6
46 30 14 35 14 41 0z m2507 -41 c0 -21 -27 -34 -42 -19 -7 7 -4 18 8 37 18 28
34 20 34 -18z m-2710 -31 l-21 -21 -19 25 c-37 47 -15 71 33 37 l29 -20 -22
-21z m-73 9 c9 -19 20 -35 25 -35 4 0 8 -4 8 -9 0 -6 -12 -6 -32 0 -18 5 -34
9 -36 9 -1 0 0 -11 4 -25 7 -28 -7 -33 -26 -10 -12 14 -8 41 12 83 16 31 26
28 45 -13z m2677 17 c15 -18 15 -20 -4 -37 -24 -21 -28 -19 -36 23 -8 37 12
44 40 14z m-71 -35 c24 -9 21 -23 -5 -31 -59 -15 -86 8 -52 45 15 17 20 18 29
7 5 -8 18 -17 28 -21z m-2384 -3 c29 -37 27 -78 -5 -103 -35 -28 -69 -26 -99
4 -34 33 -33 77 1 104 37 29 78 27 103 -5z m2664 20 c7 -8 -20 -64 -31 -64 -4
0 -18 9 -31 19 l-24 19 29 15 c32 18 47 20 57 11z m-2548 -33 c7 -12 -22 -41
-40 -41 -18 0 -28 32 -13 42 17 11 46 10 53 -1z m2450 -26 c14 -13 25 -31 25
-39 0 -58 -69 -102 -114 -73 -27 18 -36 53 -24 88 19 53 73 65 113 24z m-2735
-36 c0 -16 -4 -19 -22 -14 -37 12 -43 24 -17 34 29 11 39 6 39 -20z m2583 25
c10 -10 -12 -44 -28 -44 -16 0 -38 34 -28 44 3 3 16 6 28 6 12 0 25 -3 28 -6z
m267 -71 c0 -8 -12 -13 -30 -13 -22 0 -30 5 -30 18 0 10 3 21 6 25 10 9 54
-15 54 -30z m-2590 -20 c0 -15 -28 -17 -49 -4 -10 7 -11 13 -1 31 11 21 12 21
31 4 10 -9 19 -23 19 -31z m-292 31 c27 -8 28 -18 2 -44 -11 -11 -15 -20 -10
-20 6 0 10 -9 10 -20 0 -25 -11 -25 -44 1 -26 20 -37 69 -15 69 5 0 7 5 4 10
-7 11 18 13 53 4z m92 -53 c0 -4 -14 -15 -31 -25 l-31 -18 7 33 c4 19 10 38
12 42 5 8 43 -21 43 -32z m2530 14 c16 -19 4 -35 -26 -35 -27 0 -28 3 -14 31
13 23 23 24 40 4z m290 -14 c16 -31 12 -59 -12 -75 -30 -22 -48 -20 -48 4 0
12 7 20 18 20 16 1 16 1 0 14 -10 7 -18 18 -18 24 0 11 27 31 42 32 4 0 12 -9
18 -19z m-2722 -23 c-4 -42 -20 -45 -41 -9 -18 31 -13 39 26 40 15 1 18 -5 15
-31z m57 11 c4 -5 18 -14 31 -19 22 -9 23 -12 12 -30 -12 -19 -73 -39 -84 -27
-7 7 17 87 27 87 4 0 11 -5 14 -11z m2576 -22 c9 -33 -2 -41 -35 -26 -30 14
-34 34 -8 48 24 14 35 9 43 -22z m-107 -19 c-16 -54 -44 -58 -44 -7 0 24 4 29
26 29 22 0 24 -3 18 -22z m-66 -31 c3 -34 1 -37 -24 -37 -15 0 -35 7 -45 16
-19 17 -15 46 6 38 7 -3 15 2 19 11 11 31 41 13 44 -28z m-2924 10 c9 -14 7
-21 -7 -32 -21 -15 -23 -14 73 -35 30 -7 96 -32 147 -56 157 -75 266 -204 323
-385 21 -65 26 -114 11 -105 -5 3 -14 27 -20 52 -7 26 -14 45 -16 42 -2 -2 5
-37 15 -78 33 -127 45 -249 32 -326 -23 -139 -92 -225 -237 -294 l-81 -39 -68
-133 c-38 -73 -70 -134 -71 -136 -1 -2 -69 -23 -151 -49 -230 -70 -328 -121
-354 -182 -15 -37 6 -81 52 -109 39 -24 238 -105 244 -100 2 3 -29 18 -68 34
-91 38 -100 56 -27 53 58 -2 233 -33 275 -49 40 -16 44 -12 26 20 -13 23 -14
34 -6 47 9 15 25 18 87 18 72 -1 75 0 61 16 -9 10 -14 28 -12 41 2 18 11 24
43 29 44 6 42 7 -55 38 -73 24 -98 37 -88 47 4 3 62 -8 130 -25 112 -28 341
-72 526 -101 71 -12 99 -30 45 -30 -16 0 -45 -5 -66 -11 -54 -15 -46 -44 16
-63 27 -8 11 -26 -23 -26 -31 0 -80 -19 -80 -30 0 -4 10 -16 23 -27 16 -15 42
-23 95 -28 39 -4 72 -11 72 -15 0 -4 -20 -13 -45 -19 -25 -6 -45 -15 -45 -20
0 -12 46 -26 133 -41 46 -9 65 -16 58 -23 -11 -11 -170 2 -411 33 -195 25
-310 45 -459 81 -68 16 -126 29 -130 28 -3 0 14 -9 39 -20 l45 -19 -50 6
c-119 14 -333 99 -403 160 -33 28 -37 37 -37 79 0 43 4 51 40 82 67 58 191
109 445 182 19 6 42 39 97 137 46 83 82 135 100 146 29 18 16 25 -15 9 -9 -6
-59 -17 -111 -26 -52 -9 -135 -29 -184 -45 -50 -16 -93 -27 -96 -24 -11 10 82
175 107 192 39 25 127 59 242 93 58 17 116 38 130 46 17 9 18 12 5 8 -74 -23
-190 -45 -193 -37 -2 7 -17 6 -42 -3 -53 -19 -98 -44 -80 -45 12 0 11 -3 -3
-11 -35 -20 -30 2 22 106 44 88 58 108 94 130 36 22 38 25 13 19 -34 -8 -35
-12 35 164 57 142 65 156 96 173 12 7 20 16 17 21 -7 10 34 146 46 153 5 3 21
-7 36 -22 l27 -28 -21 30 c-67 99 -198 170 -362 196 -84 13 -137 57 -72 60
l27 1 -27 7 -27 6 27 43 c28 44 47 50 66 19z m3041 -30 c-1 -30 5 -33 23 -15
6 6 15 9 19 5 10 -11 -8 -24 -49 -35 -51 -14 -65 3 -41 47 22 38 48 37 48 -2z
m-1381 -530 c20 -27 21 -40 21 -300 0 -172 -4 -273 -10 -275 -5 -2 -17 16 -25
40 -9 27 -16 36 -18 26 -6 -28 -17 -22 -47 25 -34 51 -73 95 -100 110 -17 9
-16 5 6 -24 14 -19 33 -48 43 -66 16 -33 22 -93 9 -93 -5 0 -27 23 -51 50 -63
73 -128 102 -115 50 9 -35 -26 -23 -44 15 -16 34 -16 36 6 65 l22 31 -25 -7
c-24 -6 -26 -3 -26 25 0 100 115 175 184 120 15 -12 36 -41 46 -63 18 -39 19
-40 19 -12 1 24 3 27 16 16 8 -7 15 -10 15 -6 0 18 -33 83 -53 104 -44 47
-109 67 -121 37 -3 -9 -18 -15 -35 -15 -42 0 -157 -37 -222 -71 -31 -17 -80
-55 -110 -86 -56 -59 -55 -59 21 -2 73 55 230 118 230 92 0 -5 -26 -21 -59
-36 -73 -33 -135 -84 -200 -164 -64 -78 -92 -93 -174 -93 -67 0 -139 28 -161
62 -16 25 -4 30 49 18 67 -15 107 1 183 73 34 33 62 64 62 68 0 5 -21 -5 -47
-21 -85 -54 -142 -59 -209 -19 -36 22 -60 67 -44 83 7 7 19 5 39 -7 40 -24
134 -22 190 3 24 11 42 22 40 24 -2 3 -29 -2 -59 -10 -62 -16 -98 -12 -135 17
-67 53 11 219 103 219 29 0 28 -15 -1 -35 -24 -15 -47 -54 -47 -79 0 -7 16 2
36 20 24 23 45 34 65 34 36 0 38 -13 4 -28 -25 -12 -53 -57 -42 -68 3 -3 36
13 74 36 106 64 186 85 323 85 132 0 176 -14 250 -81 l43 -39 -6 39 c-3 22
-18 56 -32 75 l-25 36 21 18 c34 28 96 19 123 -16z m186 18 c35 -18 37 -28 11
-63 -19 -27 -38 -92 -27 -92 3 0 28 16 54 34 55 40 87 54 155 66 103 20 311
-30 414 -100 48 -32 59 -36 62 -22 2 10 -12 30 -34 49 -21 18 -36 36 -32 39
10 11 70 -15 99 -43 47 -45 35 2 -12 49 -22 22 -40 42 -40 44 0 2 12 4 26 4
60 0 123 -68 131 -143 5 -39 2 -46 -27 -70 -35 -30 -78 -34 -143 -16 -57 15
-57 3 -1 -21 57 -25 129 -29 173 -10 38 15 46 10 37 -25 -16 -64 -134 -86
-215 -40 -24 14 -45 24 -47 22 -2 -2 17 -26 41 -54 58 -66 101 -87 166 -78 56
8 64 -3 22 -33 -67 -46 -167 -56 -233 -22 -24 12 -60 48 -95 95 -60 80 -105
120 -172 154 -49 24 -58 47 -15 37 46 -11 169 -76 212 -113 61 -53 48 -22 -16
36 -70 64 -225 141 -292 146 -28 2 -50 9 -58 19 -13 19 -52 14 -91 -11 -29
-19 -83 -104 -82 -129 0 -10 3 -13 6 -6 10 26 23 10 24 -30 l0 -43 18 53 c25
71 55 102 99 102 69 0 132 -66 132 -137 0 -37 -8 -45 -31 -32 -23 12 -25 -3
-4 -21 18 -15 20 -71 3 -88 -7 -7 -20 -12 -30 -12 -14 0 -18 6 -16 26 5 48
-22 39 -87 -30 -64 -67 -85 -80 -85 -48 0 22 46 121 67 144 9 10 12 18 7 18
-15 0 -78 -70 -109 -120 -25 -39 -29 -42 -36 -25 -6 17 -9 15 -23 -17 -35 -81
-39 -50 -34 236 6 269 10 307 42 328 18 12 55 9 86 -7z m-548 -399 c-6 -32 20
-86 51 -110 18 -13 61 -33 96 -44 57 -20 186 -97 213 -129 15 -19 -13 -26 -56
-15 -48 14 -45 5 7 -18 52 -24 126 -25 175 -3 l37 17 -42 4 c-26 2 -43 8 -43
16 0 17 145 101 207 119 100 30 150 70 159 129 10 60 34 42 34 -26 0 -39 -20
-69 -73 -107 -39 -28 -39 -29 -13 -29 33 0 88 23 123 50 18 14 30 17 37 10 16
-16 -25 -62 -85 -92 l-54 -27 62 -1 c50 0 67 -4 89 -24 l28 -23 -100 -6 c-57
-3 -157 -19 -234 -37 -189 -45 -249 -43 -474 9 -131 31 -196 42 -238 39 -38
-2 -58 1 -58 8 0 22 32 37 93 43 l62 7 -35 18 c-48 25 -90 66 -90 87 0 26 16
31 31 12 19 -22 128 -73 158 -73 22 0 19 4 -20 29 -64 40 -95 117 -73 176 8
21 30 13 26 -9z m-82 11 c0 -2 -32 -57 -71 -123 -143 -238 -178 -378 -143
-569 5 -29 5 -29 -11 -10 -28 35 -55 143 -55 219 0 147 58 280 178 407 41 43
80 79 88 79 8 0 14 -1 14 -3z m1055 -79 c121 -125 165 -219 173 -369 4 -81 1
-108 -17 -165 -12 -38 -28 -80 -36 -94 -14 -23 -15 -21 -8 35 26 201 -10 335
-152 569 -25 41 -45 77 -45 80 0 19 32 -2 85 -56z m-1751 -188 c79 -22 83 -25
67 -44 -12 -14 8 -36 69 -77 l25 -17 -27 -13 c-34 -15 -36 -46 -7 -83 12 -15
19 -29 17 -32 -6 -5 -191 29 -303 57 -95 23 -135 38 -135 50 0 12 13 11 47 -2
15 -6 56 -16 91 -24 58 -12 63 -11 57 4 -23 53 -12 81 32 81 20 0 22 3 13 19
-16 31 -12 49 13 53 19 3 17 6 -15 20 -38 17 -48 28 -25 28 6 0 43 -9 81 -20z
m2436 -9 c0 -5 -13 -14 -30 -21 -29 -12 -41 -30 -20 -30 19 0 23 -30 7 -48
-15 -16 -13 -17 15 -17 43 0 58 -26 36 -65 l-17 -29 32 5 c18 3 55 12 84 20
28 8 62 14 75 14 l23 -1 -25 -13 c-68 -37 -430 -104 -430 -80 0 4 11 17 25 30
32 29 32 47 0 72 l-26 20 46 33 c49 35 51 39 33 57 -17 17 -9 21 73 42 89 21
99 23 99 11z m-2770 -57 c0 -11 -111 -218 -123 -231 -10 -10 -180 -53 -210
-53 -23 0 9 19 65 40 58 21 61 24 40 33 -29 13 -24 27 16 46 40 20 41 31 3 31
-43 0 -49 19 -15 48 l29 25 -30 -7 c-16 -4 -68 -25 -115 -47 -63 -30 -81 -42
-70 -49 12 -7 11 -13 -8 -33 -20 -22 -21 -25 -7 -31 15 -5 15 -10 -4 -42 -21
-35 -21 -35 -1 -29 11 3 20 2 20 -3 0 -11 -160 -106 -167 -99 -10 11 115 232
149 265 13 11 57 37 98 56 108 50 330 103 330 80z m1320 -50 c160 -29 279 -29
410 1 100 23 230 30 276 15 63 -20 111 -56 141 -107 25 -44 28 -57 28 -143 0
-108 -11 -138 -78 -208 -104 -107 -265 -108 -360 -3 -45 50 -68 64 -44 27 10
-15 16 -30 14 -33 -3 -2 -31 11 -63 29 -53 29 -67 33 -135 33 -65 0 -84 -4
-137 -32 -67 -34 -79 -27 -40 23 28 37 6 20 -64 -48 -151 -147 -383 -60 -429
160 -20 100 4 185 73 254 74 74 150 80 408 32z m-1214 -104 c43 -11 151 -34
239 -51 197 -37 235 -47 235 -60 0 -6 -24 -7 -62 -3 -73 7 -121 -7 -116 -33 3
-18 26 -32 88 -57 31 -12 33 -14 15 -21 -69 -24 -69 -24 -50 -45 10 -11 36
-25 57 -32 21 -6 38 -15 38 -20 0 -37 -710 101 -736 143 -11 19 3 19 58 0 72
-25 208 -55 215 -48 3 4 -2 13 -11 22 -32 33 -13 75 34 75 22 0 26 4 25 28 0
21 5 28 23 30 41 6 23 19 -63 47 -80 26 -114 45 -82 45 8 0 49 -9 93 -20z
m2882 -12 c-3 -7 -38 -23 -79 -35 -109 -33 -109 -33 -69 -47 28 -9 35 -16 33
-36 -1 -22 3 -25 35 -25 33 0 37 -3 40 -28 2 -16 -2 -35 -9 -43 -17 -21 12
-18 125 11 107 28 116 29 116 16 0 -15 -113 -48 -290 -85 -170 -36 -416 -70
-431 -60 -14 8 -10 24 6 24 28 0 95 32 95 46 0 7 -18 19 -40 25 -48 15 -51 25
-7 34 47 11 87 33 87 50 0 24 -35 35 -114 35 -42 0 -76 4 -76 9 0 14 17 18
205 46 94 14 213 37 265 49 117 29 113 29 108 14z m-1600 -360 c16 -16 -4 -38
-36 -38 -19 0 -49 -24 -117 -95 -65 -67 -100 -95 -116 -95 l-24 -1 28 -24 c18
-16 40 -25 63 -25 44 0 46 -24 3 -46 -23 -11 -45 -14 -83 -9 l-51 6 49 -46
c27 -25 46 -49 42 -53 -18 -18 -248 136 -254 171 -3 15 0 16 24 7 36 -14 39
-8 9 20 -22 21 -34 50 -20 50 3 0 22 -9 42 -20 20 -11 39 -18 41 -16 2 2 -13
20 -32 40 -32 32 -45 56 -31 56 3 0 24 -9 46 -20 l39 -21 -35 49 c-29 41 -43
72 -32 72 1 0 26 -9 55 -20 29 -11 70 -20 92 -20 46 0 48 -7 18 -45 -19 -25
-20 -27 -2 -17 10 6 30 22 43 36 35 37 113 86 164 101 54 17 60 18 75 3z m347
-26 c33 -16 81 -50 107 -75 56 -56 96 -66 52 -14 l-27 32 69 6 c38 3 84 13
102 23 19 10 36 15 39 13 7 -8 -27 -69 -56 -101 l-26 -28 43 21 c62 31 70 22
23 -24 -22 -22 -39 -41 -37 -43 2 -1 20 5 40 14 50 24 56 10 15 -32 l-34 -35
28 10 c38 14 47 14 47 -3 0 -19 -65 -69 -158 -122 -106 -61 -131 -59 -68 5
l49 49 -59 -5 c-49 -4 -63 -2 -83 14 -29 24 -21 43 20 43 29 0 79 25 79 40 0
4 -11 11 -24 14 -13 3 -50 34 -81 68 -68 77 -121 118 -151 118 -25 0 -39 14
-29 30 11 18 59 11 120 -18z m-119 -39 c59 -29 133 -87 123 -97 -3 -4 -29 -1
-56 5 -28 7 -63 9 -78 5 l-27 -7 40 -28 c43 -32 118 -118 109 -127 -3 -3 -27
6 -55 20 -109 55 -247 53 -349 -4 -30 -17 -58 -29 -61 -26 -11 12 85 120 127
143 54 28 38 38 -50 30 -32 -3 -59 -2 -59 2 0 14 56 59 105 84 71 37 156 37
231 0z m30 -240 c50 -26 129 -92 129 -107 0 -15 -48 -8 -108 15 -61 24 -65 24
-38 -5 32 -33 13 -39 -59 -19 -61 17 -95 14 -197 -13 -32 -9 -29 11 5 41 l27
25 -74 -25 c-80 -27 -111 -31 -111 -15 0 15 76 68 145 102 56 27 67 29 150 25
67 -2 101 -9 131 -24z m-311 -132 c3 -5 -2 -17 -12 -26 -16 -16 -16 -18 2 -31
11 -8 38 -20 60 -26 55 -16 19 -22 -47 -9 -63 13 -158 56 -158 71 0 5 19 10
43 11 23 0 51 4 62 9 27 12 43 12 50 1z m234 -5 c38 -20 58 -44 40 -50 -8 -2
-38 -11 -67 -20 -45 -14 -55 -15 -75 -2 -12 7 -34 16 -49 20 -32 7 -29 25 10
49 33 20 104 22 141 3z m156 -2 c21 -9 49 -14 62 -11 37 7 37 -11 1 -33 -52
-31 -218 -64 -203 -40 3 6 13 10 21 10 8 0 31 7 51 15 34 14 35 16 19 33 -36
41 -14 53 49 26z"/>
<path d="M2913 5363 c-37 -95 -43 -119 -57 -251 -6 -56 -15 -104 -21 -105 -16
-3 -26 83 -20 168 7 88 -1 91 -31 10 -15 -39 -19 -76 -18 -163 0 -62 -3 -109
-8 -104 -4 4 -16 43 -26 87 l-19 80 -5 -60 c-19 -222 101 -414 332 -530 36
-18 76 -36 90 -40 l25 -7 -24 17 -23 18 30 13 c16 7 33 22 37 34 6 19 12 21
44 16 20 -3 59 -12 87 -21 49 -14 52 -17 50 -47 -1 -26 4 -35 27 -46 52 -25
58 -12 23 47 -31 53 -33 55 -95 67 -95 20 -237 92 -297 153 -133 133 -171 322
-114 566 10 44 26 100 34 124 27 76 11 55 -21 -26z"/>
<path d="M3933 5223 c9 -2 25 -2 35 0 9 3 1 5 -18 5 -19 0 -27 -2 -17 -5z"/>
<path d="M4808 5110 c8 -202 -26 -310 -127 -410 -77 -76 -151 -116 -294 -157
l-97 -28 -31 -54 -31 -54 33 7 c49 9 67 31 51 57 -8 12 -12 22 -10 24 5 5 150
35 170 35 9 0 21 -13 27 -30 7 -20 17 -30 30 -30 24 0 27 -10 9 -29 -11 -11
-8 -12 12 -6 61 17 188 95 249 151 114 106 162 214 160 364 l0 75 -18 -60 c-9
-33 -20 -66 -25 -73 -15 -25 -24 -1 -14 40 15 66 4 195 -20 248 l-21 45 5 -72
c6 -71 -11 -203 -26 -203 -8 0 -19 81 -21 160 -1 30 -5 69 -8 85 -4 17 -5 -22
-3 -85z"/>
<path d="M3846 5145 c-3 -9 -6 -25 -6 -35 0 -13 -13 -20 -58 -29 -359 -70
-425 -548 -99 -705 94 -45 117 -52 117 -32 0 9 13 18 35 22 50 9 51 20 4 28
-79 13 -113 83 -68 140 29 37 89 37 118 0 23 -29 38 -25 85 25 32 34 29 36
-24 21 -44 -13 -53 -3 -41 50 10 46 73 120 101 120 26 0 50 -33 50 -70 0 -27
3 -31 12 -22 7 7 24 12 40 12 30 0 48 23 48 61 0 54 -118 188 -216 245 -50 30
-56 51 -16 57 l27 3 -33 13 c-18 7 -31 18 -29 25 12 33 155 -33 217 -100 23
-25 55 -75 72 -110 29 -61 30 -70 26 -167 -3 -93 -7 -108 -38 -165 -59 -112
-166 -184 -292 -199 -26 -3 -45 -9 -43 -13 9 -14 -7 -41 -29 -50 -38 -16 75
-11 137 5 82 21 127 47 196 111 44 40 71 77 98 131 33 67 38 86 41 169 4 74 0
107 -17 162 -49 162 -190 279 -372 308 -28 5 -37 2 -43 -11z m234 -329 c0 -19
0 -19 -22 0 -58 48 -70 92 -13 47 19 -15 35 -37 35 -47z"/>
<path d="M3554 5058 l-19 -23 23 19 c12 11 22 21 22 23 0 8 -8 2 -26 -19z"/>
<path d="M3140 4881 c0 -6 4 -13 10 -16 6 -3 7 1 4 9 -7 18 -14 21 -14 7z"/>
<path d="M3160 4845 c0 -3 28 -36 63 -73 35 -37 76 -89 91 -115 29 -49 53 -63
42 -24 -3 12 -6 37 -6 54 0 29 -6 36 -47 57 -27 13 -69 43 -95 66 -27 23 -48
39 -48 35z"/>
<path d="M4445 4769 c-27 -21 -65 -44 -82 -50 -26 -8 -33 -16 -33 -37 0 -15
-3 -37 -6 -49 -9 -35 8 -27 36 15 14 20 51 65 84 100 33 34 57 62 55 61 -2 0
-26 -18 -54 -40z"/>
<path d="M2871 4421 c13 -37 -1 -81 -25 -81 -11 0 -13 -10 -9 -40 6 -46 -8
-70 -43 -70 -18 0 -24 -5 -24 -23 0 -33 -18 -47 -61 -47 -37 0 -38 0 -32 -34
7 -47 -12 -54 -50 -20 -17 16 -25 20 -16 9 54 -68 108 -193 144 -329 13 -50
24 -80 24 -67 1 19 5 22 25 17 27 -7 30 -2 42 69 4 22 13 49 20 60 8 11 14 32
14 48 0 17 10 37 25 52 20 18 24 29 19 49 -10 41 3 76 28 76 20 0 21 3 15 89
-6 96 -49 222 -87 256 -20 18 -20 18 -9 -14z"/>
<path d="M3548 4263 c-78 -12 20 -42 157 -49 l90 -4 -65 18 c-36 10 -75 24
-87 30 -21 12 -42 13 -95 5z"/>
<path d="M4010 4248 c-30 -11 -91 -26 -135 -33 -97 -16 -69 -17 90 -5 124 9
199 27 174 40 -33 18 -77 17 -129 -2z"/>
<path d="M3238 3963 c7 -3 16 -2 19 1 4 3 -2 6 -13 5 -11 0 -14 -3 -6 -6z"/>
<path d="M3283 3953 c9 -2 23 -2 30 0 6 3 -1 5 -18 5 -16 0 -22 -2 -12 -5z"/>
<path d="M3698 3953 c23 -2 61 -2 85 0 23 2 4 4 -43 4 -47 0 -66 -2 -42 -4z"/>
<path d="M3348 3943 c7 -3 16 -2 19 1 4 3 -2 6 -13 5 -11 0 -14 -3 -6 -6z"/>
<path d="M4368 3943 c6 -2 18 -2 25 0 6 3 1 5 -13 5 -14 0 -19 -2 -12 -5z"/>
<path d="M3418 3933 c7 -3 16 -2 19 1 4 3 -2 6 -13 5 -11 0 -14 -3 -6 -6z"/>
<path d="M4303 3933 c9 -2 23 -2 30 0 6 3 -1 5 -18 5 -16 0 -22 -2 -12 -5z"/>
<path d="M3493 3923 c9 -2 23 -2 30 0 6 3 -1 5 -18 5 -16 0 -22 -2 -12 -5z"/>
<path d="M4213 3923 c15 -2 37 -2 50 0 12 2 0 4 -28 4 -27 0 -38 -2 -22 -4z"/>
<path d="M4128 3913 c12 -2 30 -2 40 0 9 3 -1 5 -23 4 -22 0 -30 -2 -17 -4z"/>
<path d="M4757 4368 c-38 -63 -63 -140 -71 -216 -5 -58 -4 -64 19 -84 19 -16
25 -31 25 -63 0 -28 6 -46 20 -58 14 -12 20 -29 20 -61 0 -26 6 -48 15 -56 8
-7 15 -24 15 -39 0 -34 29 -75 55 -78 17 -2 23 9 38 70 22 88 62 175 118 259
43 63 43 63 10 35 -39 -32 -54 -27 -49 19 4 32 3 33 -29 32 -41 -2 -56 12 -55
50 0 24 -3 29 -17 25 -37 -9 -65 49 -42 86 7 10 2 20 -14 33 -16 12 -25 31
-27 56 l-3 37 -28 -47z"/>
<path d="M5463 4303 c9 -2 23 -2 30 0 6 3 -1 5 -18 5 -16 0 -22 -2 -12 -5z"/>
<path d="M5408 4293 c7 -3 16 -2 19 1 4 3 -2 6 -13 5 -11 0 -14 -3 -6 -6z"/>
<path d="M5422 4276 c-29 -8 -83 -26 -120 -41 -71 -30 -106 -52 -62 -40 22 6
21 3 -10 -21 -72 -56 -176 -172 -211 -234 -22 -41 -41 -64 -50 -62 -27 4 -85
-232 -72 -297 l6 -36 16 35 16 35 6 -100 c3 -55 6 -79 7 -54 1 26 11 91 22
144 23 113 23 108 11 100 -36 -22 -7 106 47 210 49 93 155 199 242 241 64 31
218 84 244 84 9 0 12 9 8 25 -5 29 -19 30 -100 11z"/>
<path d="M5083 3857 c-41 -68 -51 -107 -29 -107 9 0 44 -11 77 -25 33 -14 84
-35 112 -46 49 -19 51 -20 34 -2 -11 13 -13 23 -7 29 6 6 -3 16 -26 29 -28 15
-34 23 -30 40 4 16 -2 27 -25 44 -27 20 -33 50 -6 35 7 -4 -1 7 -17 24 -17 18
-35 32 -41 32 -5 0 -25 -24 -42 -53z"/>
<path d="M5027 3713 c-2 -10 -8 -25 -11 -33 -5 -12 13 -23 84 -49 49 -19 90
-38 90 -43 0 -13 -68 1 -127 27 -28 13 -54 21 -57 17 -20 -19 29 -121 71 -149
13 -9 22 -21 20 -28 -6 -14 19 -30 61 -39 51 -12 52 -29 1 -22 -43 7 -43 6 14
-14 71 -25 188 -53 195 -46 2 3 -39 26 -92 50 -123 57 -233 142 -212 163 3 3
34 -1 68 -10 35 -9 81 -19 103 -23 22 -3 49 -8 60 -10 16 -4 14 -1 -7 16 -49
38 -32 62 26 40 34 -13 33 3 -1 30 -23 18 -28 19 -35 6 -7 -13 -15 -12 -62 3
-59 21 -116 49 -116 57 0 3 15 3 33 -1 28 -5 27 -3 -13 15 -25 12 -55 30 -66
41 -20 19 -22 19 -27 2z"/>
<path d="M4983 3421 c12 -109 74 -227 138 -262 28 -15 212 -65 286 -79 35 -6
82 -17 104 -25 58 -21 80 -20 52 3 -30 23 -51 81 -33 92 16 10 10 13 -91 49
-46 16 -75 25 -65 18 10 -7 31 -22 45 -34 22 -19 24 -24 11 -33 -8 -5 -30 -10
-49 -10 -33 0 -34 -1 -15 -14 33 -24 11 -26 -74 -6 -87 21 -150 48 -172 75
-19 23 -6 29 29 11 39 -21 50 -20 44 3 -3 12 3 24 17 34 21 15 19 17 -78 66
-141 73 -167 107 -79 105 l41 -2 -35 19 c-20 10 -41 25 -48 33 -26 31 -34 18
-28 -43z"/>
<path d="M4951 3384 c0 -11 3 -14 6 -6 3 7 2 16 -1 19 -3 4 -6 -2 -5 -13z"/>
<path d="M5170 3327 c0 -3 19 -12 43 -20 124 -45 264 -95 282 -102 20 -7 20
-7 0 10 -11 8 -20 23 -20 33 0 11 -18 24 -55 39 -46 18 -56 19 -65 7 -10 -14
-43 -8 -164 31 -12 3 -21 4 -21 2z"/>
<path d="M5341 2962 c32 -59 59 -112 59 -119 0 -16 49 -53 69 -53 9 0 3 8 -16
20 -25 15 -44 43 -78 116 -54 117 -56 129 -15 120 17 -3 45 -8 63 -11 28 -4
27 -3 -8 9 -22 7 -61 16 -86 19 l-47 6 59 -107z"/>
<path d="M5468 3023 c7 -3 16 -2 19 1 4 3 -2 6 -13 5 -11 0 -14 -3 -6 -6z"/>
<path d="M2515 3962 c4 -8 -8 -26 -32 -47 -30 -27 -33 -33 -15 -28 35 9 26
-10 -18 -35 -42 -24 -52 -42 -22 -42 12 -1 4 -12 -26 -38 -23 -20 -42 -41 -42
-46 0 -5 -8 -18 -17 -29 -18 -20 -18 -20 12 -4 17 8 75 32 130 53 55 20 104
40 109 45 11 10 -35 123 -65 159 -11 14 -18 19 -14 12z"/>
<path d="M2515 3704 l-70 -35 45 6 c42 6 44 5 25 -9 -10 -9 -44 -24 -75 -33
-30 -9 -61 -21 -67 -26 -15 -11 -6 -30 9 -21 7 4 8 2 4 -5 -4 -6 -24 -20 -44
-32 -20 -11 -30 -18 -21 -15 9 2 38 7 65 11 27 3 80 13 117 22 37 8 70 13 73
10 21 -20 -97 -110 -204 -155 -78 -33 -135 -68 -97 -59 201 49 208 51 180 60
-21 7 -24 12 -14 18 8 5 25 9 39 9 57 0 171 139 163 196 l-5 31 -51 -25 c-93
-44 -155 -62 -141 -41 5 9 142 80 175 91 16 5 -2 38 -20 37 -9 0 -47 -16 -86
-35z"/>
<path d="M2300 3608 c-21 -23 -26 -38 -11 -38 13 0 61 40 61 51 0 17 -29 9
-50 -13z"/>
<path d="M2639 3504 c-7 -9 -36 -29 -64 -45 -47 -27 -48 -29 -16 -22 25 4 32
3 27 -5 -4 -7 -3 -12 3 -12 5 0 13 5 16 10 8 13 35 13 35 0 0 -18 -94 -79
-165 -107 -86 -33 -81 -29 -62 -51 10 -11 14 -26 10 -41 -5 -21 -3 -22 18 -16
13 4 36 14 52 22 33 17 35 4 4 -25 -26 -25 -83 -46 -180 -68 -75 -17 -94 -14
-51 9 l27 14 -46 7 c-50 8 -57 18 -30 48 17 19 16 19 -12 12 -17 -3 -51 -16
-78 -27 -38 -16 -45 -22 -36 -34 9 -10 9 -20 -1 -41 -8 -15 -13 -30 -12 -35 1
-4 -10 -12 -24 -17 -51 -20 -18 -19 45 0 34 11 108 29 164 41 192 39 247 59
298 110 54 53 87 131 96 226 6 66 4 73 -18 47z"/>
<path d="M3339 3006 c-48 -17 -75 -37 -104 -76 -57 -78 -54 -219 7 -283 22
-24 27 -26 18 -9 -15 30 1 28 31 -4 28 -31 114 -74 147 -74 35 0 76 25 147 89
74 68 123 85 241 84 106 -1 162 -24 243 -98 77 -71 97 -80 149 -70 60 11 74
22 59 45 -16 27 -26 25 -63 -11 -24 -24 -37 -29 -54 -24 -19 6 -22 12 -17 46
5 39 -6 62 -17 34 -9 -25 -31 -17 -88 28 -40 33 -67 46 -112 55 -139 28 -256
8 -334 -55 -58 -47 -76 -52 -91 -25 -12 19 -14 13 -11 -39 2 -55 -22 -58 -78
-8 -43 38 -47 39 -54 20 -9 -26 -20 -26 -41 -3 -26 28 -20 46 21 69 100 55
223 82 407 87 233 6 374 -16 513 -79 77 -36 87 -52 55 -89 -12 -13 -6 -11 18
7 42 32 50 33 43 10 -4 -12 1 -9 15 7 24 29 51 110 51 154 0 92 -67 184 -152
207 -43 11 -157 6 -196 -8 -18 -8 -18 -9 -1 -37 l17 -28 16 30 c22 44 46 49
73 16 l22 -28 19 25 20 24 22 -20 c12 -11 33 -20 46 -20 13 0 24 -4 25 -10 4
-22 -112 -37 -319 -42 l-214 -5 4 23 c3 22 9 24 72 29 49 3 73 1 82 -8 10 -10
18 -7 39 14 27 26 27 27 3 20 -12 -4 -88 -11 -168 -14 -98 -4 -129 -8 -95 -12
42 -4 50 -8 50 -25 0 -19 -6 -20 -180 -18 -160 2 -326 20 -343 38 -3 3 -1 10
6 17 8 8 15 8 25 0 11 -9 18 -8 32 8 23 26 40 25 59 -2 l15 -22 21 27 c28 35
46 34 69 -3 l18 -31 17 27 c10 14 16 27 14 28 -8 7 -124 26 -152 26 -17 -1
-47 -7 -67 -14z"/>
<path d="M3578 2983 c7 -3 16 -2 19 1 4 3 -2 6 -13 5 -11 0 -14 -3 -6 -6z"/>
<path d="M3627 2954 c15 -23 18 -24 28 -10 7 9 21 17 31 17 20 1 -28 16 -59
18 -17 1 -17 0 0 -25z"/>
<path d="M4776 6292 c2 -37 6 -116 8 -177 7 -174 44 -313 174 -640 110 -278
123 -330 129 -511 l5 -152 42 18 c22 10 61 21 86 25 64 9 83 -9 187 -177 48
-78 127 -194 177 -257 139 -179 143 -190 106 -259 -39 -74 -48 -79 -154 -90
-72 -8 -115 -19 -167 -43 -38 -18 -69 -35 -69 -39 0 -3 16 -47 36 -96 20 -49
58 -145 86 -214 27 -69 78 -188 112 -265 35 -77 66 -148 69 -157 4 -10 13 -18
20 -18 23 0 42 -30 88 -133 32 -75 49 -102 71 -113 22 -11 48 -54 121 -202 51
-103 98 -207 103 -232 l10 -45 44 75 c255 433 390 992 359 1477 -24 365 -116
708 -274 1023 -254 507 -696 945 -1200 1190 -190 92 -173 91 -169 12z"/>
<path d="M7305 4410 c-33 -8 -365 -61 -690 -112 -80 -13 -80 -13 -83 -45 -3
-31 -2 -33 31 -33 69 0 854 83 861 91 2 2 0 27 -3 54 -6 49 -7 50 -41 52 -19
1 -53 -3 -75 -7z"/>
<path d="M6965 4029 c-99 -3 -233 -7 -297 -8 l-118 -1 0 -45 0 -45 450 0 450
0 0 55 0 55 -152 -2 c-84 -1 -234 -5 -333 -9z"/>
<path d="M1752 2298 c95 -125 337 -362 468 -459 374 -278 775 -445 1240 -516
143 -22 526 -24 670 -4 566 78 1053 310 1472 702 97 90 255 267 280 312 9 17
7 17 -29 -1 -241 -123 -682 -201 -1377 -242 l-169 -10 -71 -45 c-86 -55 -190
-89 -323 -106 -185 -23 -371 16 -528 111 l-80 48 -176 11 c-441 28 -980 110
-1199 181 -49 16 -120 45 -159 64 -39 20 -73 36 -76 36 -4 0 22 -37 57 -82z"/>
<path d="M430 2051 c0 -6 4 -13 10 -16 6 -3 7 1 4 9 -7 18 -14 21 -14 7z"/>
<path d="M460 2004 c0 -6 7 -19 16 -30 14 -18 14 -18 3 6 -14 31 -19 36 -19
24z"/>
<path d="M500 1931 c0 -6 4 -13 10 -16 6 -3 7 1 4 9 -7 18 -14 21 -14 7z"/>
</g>
</svg>
